<svg viewBox="0 0 154.58 141.53" xmlns="http://www.w3.org/2000/svg"><path d="m16.84 68.67h120.91v26.11h-120.91z" fill="#ecebeb"/><path d="m17.78 78.06h118.56v5.04h-118.56z" fill="#d8d2d2"/><path d="m22 2h2.2a4.37 4.37 0 0 1 4.37 4.37v20.54a0 0 0 0 1 0 0h-11a0 0 0 0 1 0 0v-20.54a4.37 4.37 0 0 1 4.43-4.37z" fill="#ecebeb"/><rect fill="#637582" height="51.13" rx="5" width="149.58" x="3.46" y="26.9"/><path d="m13.51 78h-6.27c-2.46 0-4.47-2.3-4.47-5.14v-40.86c0-2.83 2-5.13 4.47-5.13h6.27c-2.51.03-4.51 2.33-4.51 5.13v40.9c0 2.84 2 5.1 4.51 5.1z" fill="#94a5af"/><path d="m151.32 30v42.26a4.41 4.41 0 0 1 -4.41 4.41h-73.37c31.92-9.53 44.71-37 49.29-51.13h24.08a4.41 4.41 0 0 1 4.41 4.46z" fill="#455760"/><circle cx="23.45" cy="49.59" fill="#ffc754" r="5.78"/><circle cx="58.43" cy="49.59" fill="#a2fce2" r="5.78"/><circle cx="40.94" cy="49.59" fill="#ffc754" r="5.78"/><circle cx="40.94" cy="49.59" fill="none" r="5.78" stroke="#3e3127" stroke-miterlimit="10" stroke-width="3"/><rect fill="none" height="51.13" rx="5" stroke="#3e3127" stroke-miterlimit="10" stroke-width="5" width="149.58" x="2.5" y="26.91"/><path d="m16.84 78.06h120.91v24.77h-120.91z" fill="none" stroke="#3e3127" stroke-miterlimit="10" stroke-width="4"/><circle cx="23.4" cy="49.59" fill="none" r="5.78" stroke="#3e3127" stroke-miterlimit="10" stroke-width="3"/><rect fill="#637582" height="51.13" rx="5" width="149.58" x="3.46" y="87.89"/><path d="m152.08 92.31v42.3a4.4 4.4 0 0 1 -4.41 4.41h-73.37c31.92-9.52 44.71-37 49.29-51.12h24.08a4.4 4.4 0 0 1 4.41 4.41z" fill="#455760"/><g fill="none" stroke="#3e3127" stroke-miterlimit="10"><path d="m21.02 103.74h15.17" stroke-linecap="round" stroke-width="3"/><path d="m21.02 113.46h15.17" stroke-linecap="round" stroke-width="3"/><path d="m21.02 123.18h15.17" stroke-linecap="round" stroke-width="3"/><path d="m53.48 103.74h15.17" stroke-linecap="round" stroke-width="3"/><path d="m53.48 113.46h15.17" stroke-linecap="round" stroke-width="3"/><path d="m53.48 123.18h15.17" stroke-linecap="round" stroke-width="3"/><path d="m85.94 103.74h15.16" stroke-linecap="round" stroke-width="3"/><path d="m85.94 113.46h15.16" stroke-linecap="round" stroke-width="3"/><path d="m85.94 123.18h15.16" stroke-linecap="round" stroke-width="3"/><path d="m118.39 103.74h15.17" stroke-linecap="round" stroke-width="3"/><path d="m118.39 113.46h15.17" stroke-linecap="round" stroke-width="3"/><path d="m118.39 123.18h15.17" stroke-linecap="round" stroke-width="3"/></g><path d="m27.86 9.43-10.19 8.82v-3.33l10.19-8.82z" fill="#fff"/><path d="m27.86 15.23-10.19 8.82v-3.33l10.19-8.82z" fill="#fff"/><path d="m23.1 2a5.48 5.48 0 0 1 5.48 5.48v19.43a0 0 0 0 1 0 0h-11a0 0 0 0 1 0 0v-19.43a5.48 5.48 0 0 1 5.52-5.48z" fill="none" stroke="#3e3127" stroke-miterlimit="10" stroke-width="4"/><circle cx="58.43" cy="49.59" fill="none" r="5.78" stroke="#3e3127" stroke-miterlimit="10" stroke-width="3"/><circle cx="104.77" cy="54.05" fill="#455760" r="6.56"/><circle cx="95.18" cy="44.31" fill="#455760" r="2.98"/><path d="m13.51 139h-6.27c-2.46 0-4.47-2.3-4.47-5.13v-40.87c0-2.83 2-5.13 4.47-5.13h6.27c-2.51.02-4.51 2.32-4.51 5.13v40.9c0 2.83 2 5.1 4.51 5.1z" fill="#94a5af"/><rect fill="none" height="51.13" rx="5" stroke="#3e3127" stroke-miterlimit="10" stroke-width="5" width="149.58" x="2.5" y="87.89"/></svg>