<svg height="132" preserveAspectRatio="xMidYMid" viewBox="0 0 512 132" width="512" xmlns="http://www.w3.org/2000/svg"><path d="m229.182469 41.0285933c13.690488 0 20.137033 9.3348134 20.137033 23.6928612 0 13.8680957-6.446545 23.4711579-20.137033 23.4711579-13.735809 0-20.181129-9.6030622-20.181129-23.4711579 0-14.3580478 6.44532-23.6928612 20.181129-23.6928612zm39.650603.5340478v26.0483063c0 10.3122679 2.044325 14.3568229 8.623158 14.3568229 3.73466 0 6.888727-1.0252248 9.157205-2.088421 1.166087-.5466029 2.231828-1.1579139 3.164402-1.8380359l.391426-.2957057v-36.1829666h8.222622v45.8288996l-5.956593.4887272-1.110967-5.733665c-1.155062 1.1097416-2.540402 2.119043-4.133971 3.0217799-2.719234 1.5421244-6.621703 3.0230048-11.646163 3.0230048-10.202595 0-14.792968-6.2199531-14.890506-19.8231206l-.001589-.4462v-26.3594259zm60.675674-.5364976c3.911043 0 7.148402.6014163 9.467101 1.2432536 1.200383.3333206 2.2751.66289 3.239744 1.0674833l.406725.1782201.666335 6.000689c-1.156287-.4005359-2.401991-.7949474-3.778756-1.1109665-2.312574-.5291484-5.422546-1.1121914-8.801991-1.1121914-7.955598 0-12.247579 5.068555-12.223081 17.4704689.020823 11.9572823 4.266258 17.3271579 12.223081 17.2022201 3.37822-.0526699 6.533512-.5364976 8.847311-1.0668708 1.180085-.2698237 2.263879-.5666447 3.276837-.8981766l.500694-.1686943-.71043 5.9124977c-1.066871.4899521-2.273378.8684401-3.601149 1.2444784-2.273378.645512-5.511961 1.1501627-9.290717 1.2003828-9.77822.1286124-19.647082-5.8684019-19.647082-23.2923254 0-18.3585071 9.824766-23.869244 19.425378-23.8704689zm32.67246-16.7122679v22.7595024c4.845627-3.7775311 9.336038-5.2449378 15.335502-5.2449378 10.251899 0 14.276944 5.7060493 14.35802 20.3037345l.001253.4543133v25.6048996h-8.225072v-24.9814354c0-12.0907943-2.889493-15.1137991-8.223847-15.1137991-5.38669 0-10.856438 3.8639706-13.093821 4.7026903l-.15081.0535202v35.339024h-8.225072v-63.0764402zm62.897607 0c7.558737 0 14.730412.9125359 20.315866 5.202067 5.527886 4.2454354 9.201302 11.5126507 9.201302 25.426067 0 19.8907958-5.183782 32.9855313-26.853982 33.2454369l-.661731.0039411h-20.313416v-63.877512zm43.074144 0h17.55866c16.535885 0 22.53535 4.6680191 22.53535 16.7588134 0 9.380134-7.999694 12.4460096-11.379139 12.8024498 2.71311.2217033 5.107751.8953875 7.202296 2.088421 3.596249 2.0516746 7.201072 5.8243062 7.201072 13.7786794 0 12.6294818-7.230368 18.3334617-21.735065 18.447405l-.446294.0017434h-20.93688v-63.877512h17.55866zm-285.244019-2.2660287c4.800306 0 9.024918.6614354 12.045473 1.3351196 1.779752.3944115 3.379445.7998469 4.801532 1.2885742l.711655 6.8899521c-1.467407-.5328229-3.105072-1.0533971-4.889722-1.4674067-3.015656-.6969569-7.156976-1.4159617-11.735579-1.3779904-11.46978.0967655-18.559388 6.2677129-18.492019 26.0054354.066143 19.1571292 5.823081 26.8212057 17.646851 26.7587368 4.935043-.0257224 9.193952-.6920574 12.401914-1.6009186 1.816498-.5132249 3.511732-1.0215503 5.068555-1.6009187l-.755751 6.9340479c-1.467407.5781435-3.111196 1.0729952-4.935043 1.5115024-3.154067.7606507-7.556287 1.4674067-12.757129 1.4674067-7.156976 0-13.468785-1.7785264-18.047388-6.9340479-4.578603-5.1567464-7.408076-13.6917129-7.422833-26.4488421-.029339-24.6703158 11.201589-32.7606507 26.359484-32.7606507zm46.273531 25.292555c-8.890182 0-11.869091 6.2236172-11.869091 17.2916364 0 10.2216268 2.978909 17.335732 11.869091 17.335732s11.867866-7.1128803 11.867866-17.335732c0-11.0680192-3.111196-17.2916364-11.867866-17.2916364zm198.208919-16.5812057h-12.090795v51.0309665h8.979598c17.336957 0 21.933933-6.000689 21.9585-26.4929378.019529-16.5358852-4.13404-24.5380287-18.847303-24.5380287zm59.432421 26.4047464h-10.624613v24.6262201h10.7569c10.846315 0 16.402373-1.8667177 16.403598-12.13489 0-9.8235406-5.155522-12.4913301-16.535885-12.4913301zm-2.224383-26.4035215h-8.40268v20.7592727h10.357589c10.179981 0 13.669665-3.8240766 13.691802-10.8022201.023184-8.0903349-4.488051-9.9570526-15.646711-9.9570526z" fill="#444"/><path d="m472.838124 104.844861c8.081298 0 10.084591 2.90371 10.137258 10.846549l.001077.32926v10.24245c0 1.213856.127388 1.84222.557321 2.021052.432138.17969 1.233356.117295 1.907183.101233l.219209-.003242-.330717 3.086698-.808422.227828c-.500976.142086-1.212631.229053-2.022277.229053-1.390239 0-2.327273-.557321-2.933589-1.240804-.606315-.681034-.885588-1.768727-.885588-2.172938-.455656.630813-1.090144 1.208957-1.896115 1.719732-1.392689.880689-3.565627 1.660938-6.929148 1.69401-4.601876.04287-7.711847-2.833149-7.711847-7.409302 0-6.04356 5.715292-7.409301 11.581244-7.409301 1.056119 0 2.077397.03968 2.908985.137966l.302651.039641 1.39024.202106v-2.856421c0-5.387024-1.518852-6.219943-5.841455-6.219943-2.09822 0-4.097225.374813-5.689569.758201-.749627.179322-1.449083.379027-2.113419.607266l-.491902.176657.505876-3.515406c.632038-.278048 1.366966-.549972 2.199885-.783924 1.419636-.398086 3.414966-.808421 5.943119-.808421zm-37.499713-.202348c6.371828-.037728 9.523445 4.374291 9.633685 9.001889.017148.707981-.061244 1.89489-.15311 2.806201-.07972.809544-.140913 1.558362-.227922 1.931337l-.024404.092165h-15.701741v.908862c0 6.373052 3.108746 8.60111 7.786564 8.547215 1.921838-.023273 3.716287-.25845 5.057531-.531598.627139-.126408 1.222137-.260655 1.784367-.412775l.415519-.117598-.480154 3.388019c-.60754.227827-1.288574.432382-2.023502.606315-1.287349.306221-3.032804.607541-5.080804.607541-8.167502 0-12.289225-4.39977-12.289225-13.123368 0-9.633685 4.881149-13.667216 11.303196-13.704205zm20.734776-9.5085034v36.3360764h-4.653321v-35.879196zm37.548708 10.2669474 6.371827 10.467828 6.321608-10.467828h4.955866l-8.696651 13.098871 8.696651 12.970258h-5.232689l-6.044785-10.164057-6.092555 10.164057h-5.184918l8.64888-12.970258-8.64888-13.098871zm-75.73068-.758201c.683484 0 1.341244.151885 1.845895.278048.201697.051445.393051.113233.572972.178469l.261172.099579-.556096 3.615847-.353991-.176383c-.276823-.077168-.7582-.178833-1.567846-.178833-1.920613 0-3.561953.609991-4.753761 1.189359-.544827.264574-1.058297.574616-1.54041.908175l-.355705.254237v20.203177h-4.677818v-26.118125l3.261856-.25355.885589 3.185914c1.94756-2.024727 4.424268-3.185914 6.978143-3.185914zm48.524862 20.052517c0 2.604095 1.744229 3.817952 4.80398 3.817952 2.122718 0 3.888996-.51445 5.132249-1.087694.607337-.280702 1.16789-.567358 1.67457-.903916l.297488-.208275h.001225v-6.144l-1.239579-.074718-2.604096-.077167c-2.983809-.086967-8.065837.252325-8.065837 4.677818zm-30.977225-16.58978c-1.59112 0-3.083024.455655-4.271158 1.594794-1.141785 1.092397-1.956203 2.766152-2.198339 5.583703l-.027269.358192h11.959732c0-.278048.007349-.478928.025723-.632038.031847-.279273.030622-.556096.024497-.785149-.120038-4.29933-2.40199-6.119502-5.513186-6.119502z" fill="#777"/><path d="m109.189512 58.7942584c0 5.5695311-2.933589 8.2985646-8.399005 8.3953301v.0036747h-67.193263v-.0036747c-5.4654162-.0967655-8.3990048-2.825799-8.3990048-8.3953301 0-5.5683062 2.9335886-8.2985646 8.3990048-8.3941053v-.0048995h67.193263v.0048995c5.465416.0955407 8.399005 2.8257991 8.399005 8.3941053m-8.399005 12.6040191v-.0048995h-67.193263v.0048995c-5.4654162.0955407-8.3990048 2.8257991-8.3990048 8.3953302s2.9335886 8.2973397 8.3990048 8.3941052v.0036747h67.193263v-.0048996c5.465416-.0955406 8.399005-2.8245741 8.399005-8.3941052s-2.933589-8.2985646-8.399005-8.3941053m20.998125-46.1914641v-.0048995c-5.465417.0967655-8.399005 2.825799-8.399005 8.3953301v46.1951388c0 5.5695311 2.933588 8.2973397 8.399005 8.3941052v-.0085741c8.198124-.2878469 12.599119-8.4761723 12.599119-25.1835407v-20.9981244c0-11.1378373-4.400995-16.5959043-12.599119-16.7894354m-109.1895124-.0048995v.0048995c-8.19812438.1935311-12.5991196 5.6515981-12.5991196 16.7894354v20.9981244c0 16.7073684 4.40099522 24.8944689 12.5991196 25.1835407v.0085741c5.4654163-.0955406 8.3990048-2.8245741 8.3990048-8.3941052v-46.1951388c0-5.5695311-2.9335885-8.2985646-8.3990048-8.3953301m109.1895124-4.2037895c0-13.92321531-7.334584-20.74579904-20.998125-20.98710048v-.01102392h-67.193263v.01102392c-13.6623158.24130144-20.9981244 7.06388517-20.9981244 20.98710048v.0073493c8.1981244.1445359 12.5991196 4.2380861 12.5991196 12.5917703s4.4009952 12.4472345 12.5991197 12.5917704v.0061244h58.7942583v-.0061244c8.1968998-.1445359 12.5978948-4.2380862 12.5978948-12.5917704s4.400995-12.4472344 12.59912-12.5917703z" fill="#e42528"/></svg>