<svg height="100" viewBox="0 0 100 100" width="100" xmlns="http://www.w3.org/2000/svg"><path d="m82 59.3v-7.67h-2.69v-3.24h2.68v-7.51l-2.68-1.4v-1.8l2.69-.24v-7.63l-8-8.81-14.39-7.17h-20.08l-14.48 7.17-7 8.8v7.65l2 .23v1.84l-2 1.19v7.65h2v3.21h-2v7.62l2 1.2v1.86l-2 .24v7.62l7 8.81 14.46 7.18h20.1l14.39-7.1 8-8.81v-7.6l-2.68-.26v-1.69zm-23.22-2-15.35 18.35 3-15.81-6.52-2 6.34-12.29-5.9-2.8 15.39-18.43-3 15.81 6.52 2-6.37 12.34z" fill="#19486f"/><path d="m25.08 67.97v11.03l14.44 7.17.02-13.74z" fill="#205b99"/><path d="m39.52 27.21v-13.38l-14.47 7.16.03 11.01z" fill="#205b99"/><path d="m46.29 45.51-2.61.46-4.15.72-3.6-4.41 4.46.43z" fill="#99bce3"/><path d="m44.03 63.65 2.43-3.81-6.51-2.05-4.04 3.3 3.63 4.24z" fill="#99bce3"/><path d="m52.71 40.13 2.59-3.72 3.18-.59-2.57-2.58 1.15-6.03 2.12-.68.43-12.61-3.87 10.4z" fill="#205b99"/><path d="m55.65 53.69-2.77.78 6.35-12.29 4.05-3.28 2.95 6.58-7.29 1.83-3.11 6.03 1.85.71z" fill="#205b99"/><path d="m58.78 57.26 4.77.25-3.93 8.89h-3.53l-5.06 6.03 2.93 11.07-14.42 2.61 3.89-10.46z" fill="#205b99"/><g fill="#2e73b8"><path d="m55.3 36.41 4.31 1.36v-4.53h-3.7z"/><path d="m42.99 47.31.69-1.34-4.16-1.97v3.31h.11z"/><path d="m55.63 53.7 3.98 1.92v-2.28h-3.8z"/><path d="m44.03 63.65-4.51-1.41v4.16h3.96z"/><path d="m43.47 33.24h-3.95v4.73z"/><path d="m39.52 72.43v13.69l2.75-13.69z"/><path d="m59.61 66.4v-4.19l-3.52 4.19z"/><path d="m59.61 27.21v-13.29l-2.55 13.29z"/><path d="m39.52 86.12v.05h20.09v-13.74h-8.58z"/><path d="m39.52 27.21h8.98l11.11-13.3v-.08h-20.09z"/></g><path d="m59.62 55.62 3.93 1.89-3.93 4.69v4.2l14.32-3.09.01-.01v-11l-14.33 1.04z" fill="#5294cf"/><path d="m59.62 13.83h-.01l.01.07v13.31l14.33 4.63v-10.85z" fill="#5294cf"/><path d="m59.62 37.77 3.64 1.14-3.64 7.06-.7 1.34h.69.01l14.33.46v-11.15l-14.33-3.38z" fill="#5294cf"/><path d="m59.62 86.17 14.33-7.18v-11l-14.33 4.44z" fill="#5294cf"/><path d="m73.95 63.3 8.05-4v-7.67l-8.05.67z" fill="#2e73b8"/><path d="m81.99 37.47v-7.65l-8.04-8.83v10.86z" fill="#2e73b8"/><path d="m73.95 36.62v11.15l8.04.6v-7.49z" fill="#2e73b8"/><path d="m73.95 78.99 8.04-8.77v-7.64l-8.04 5.41z" fill="#2e73b8"/><path d="m25.49 63.31 7.89 1.74 6.14 1.35v-4.16l-3.61-1.15 3.62-7.02.38-.73h-.38l-9.78-.71-4.67-.33v10.92l.16.04z" fill="#205b99"/><path d="m39.53 47.31-.01-3.31-3.57-1.71 3.57-4.32v-4.73l-14.29 3.38-.15.04v11l4.95-.12z" fill="#205b99"/></svg>