<svg xmlns="http://www.w3.org/2000/svg" width="430" height="430" style="width:100%;height:100%;transform:translate3d(0,0,0);content-visibility:visible" viewBox="0 0 430 430"><defs><clipPath id="c"><path d="M0 0h430v430H0z"/></clipPath><clipPath id="m"><path d="M0 0h430v430H0z"/></clipPath><clipPath id="o"><path d="M0 0h416v416H0z"/></clipPath><clipPath id="i"><path d="M0 0h430v430H0z"/></clipPath><clipPath id="j"><path d="M0 0h416v416H0z"/></clipPath><clipPath id="f"><path d="M0 0h430v430H0z"/></clipPath><clipPath id="g"><path d="M0 0h430v430H0z"/></clipPath><clipPath id="h"><path d="M0 0h430v430H0z"/></clipPath><clipPath id="d"><path d="M0 0h430v430H0z"/></clipPath><clipPath id="e"><path d="M0 0h430v430H0z"/></clipPath><path id="a" fill="red" d="M0-167.5c92.443 0 167.5 75.057 167.5 167.5S92.443 167.5 0 167.5-167.5 92.443-167.5 0-92.443-167.5 0-167.5" style="display:block" transform="rotate(-45 367.028 -152.028)"/><path id="b" style="display:none"/><mask id="n" mask-type="alpha"><use xmlns:ns1="http://www.w3.org/1999/xlink" ns1:href="#a"/></mask><mask id="k" mask-type="alpha"><use xmlns:ns2="http://www.w3.org/1999/xlink" ns2:href="#b"/></mask></defs><g clip-path="url(#c)"><g clip-path="url(#d)" style="display:none"><g fill="none" clip-path="url(#e)" style="display:none"><g style="display:none"><path class="secondary"/><path class="secondary"/><path class="secondary"/></g><path class="primary" style="display:none"/><path class="primary" style="display:none"/><path class="primary" style="display:none"/><path class="primary" style="display:none"/><path class="primary" style="display:none"/></g></g><g fill="none" clip-path="url(#f)" style="display:none"><g clip-path="url(#g)" style="display:none"><g style="display:none"><path class="secondary"/><path class="secondary"/><path class="secondary"/></g><path class="primary" style="display:none"/><path class="primary" style="display:none"/><path class="primary" style="display:none"/><path class="primary" style="display:none"/><path class="primary" style="display:none"/></g><g clip-path="url(#h)" style="display:none"><g style="display:none"><path class="secondary"/><path class="secondary"/><path class="secondary"/></g><path class="primary" style="display:none"/><path class="primary" style="display:none"/><path class="primary" style="display:none"/><path class="primary" style="display:none"/><path class="primary" style="display:none"/></g></g><g fill="none" clip-path="url(#i)" style="display:none"><g clip-path="url(#j)" mask="url(#k)" style="display:none"><path class="secondary" style="display:none"/><path class="secondary" style="display:none"/><path class="secondary" style="display:none"/></g><path class="primary" style="display:none"/></g><g clip-path="url(#m)" style="display:block"><g mask="url(#n)" style="display:block"><g fill="none" stroke="#000" stroke-linecap="round" stroke-linejoin="round" stroke-width="12" clip-path="url(#o)" transform="translate(11.5 6.5)"><path d="M82.461-142.335c-18.752-1.972-32.658 14.265-35.949 18.508-13.351-3.471-28.954-4.852-46.292-4.852-17.304 0-32.918 1.376-46.307 4.832-3.319-4.275-17.212-20.457-35.934-18.488-11.675 16.067-3.165 37.581-1.668 41.05-8.396 10.868-13.001 25.607-13.001 45.289 0 47.686 20.923 66.353 66.459 71.264-5.611 4.584-9.194 11.559-9.194 19.37V142.5h79.29V34.638c0-7.813-3.583-14.789-9.197-19.373C76.082 10.349 96.69-8.32 96.69-55.996c0-19.521-4.479-34.179-12.678-45.021 1.075-2.415 10.481-24.759-1.551-41.318" class="secondary" style="display:block" transform="translate(205.19 248.313)"/><path d="M-18.268-22.068a63 63 0 0 0-8.914-6.415c-13.365-7.953-22.5 11.403-13.565 16.864C-17.255 2.737-22.928 11.024-4.909 25.054c15.517 12.082 35.167 7.667 46.5 3.5m0-33C-.241 8.24-1.095-7.327-18.268-22.068" class="secondary" style="display:block" transform="translate(123.673 295.253)"/></g></g><path fill="none" stroke="#000" stroke-linecap="round" stroke-linejoin="round" stroke-width="12" d="M0-167.5c92.443 0 167.5 75.057 167.5 167.5S92.443 167.5 0 167.5-167.5 92.443-167.5 0-92.443-167.5 0-167.5" class="primary" style="display:block" transform="rotate(-45 367.028 -152.028)"/></g></g></svg>