<?xml version="1.0" encoding="iso-8859-1"?>
<!-- Generator: Adobe Illustrator 24.2.3, SVG Export Plug-In . SVG Version: 6.00 Build 0)  -->
<svg version="1.1" xmlns="http://www.w3.org/2000/svg" xmlns:xlink="http://www.w3.org/1999/xlink" x="0px" y="0px"
	 viewBox="0 0 48 48" style="enable-background:new 0 0 48 48;" xml:space="preserve">
<g id="&#x421;&#x43B;&#x43E;&#x439;_1">
</g>
<g id="&#x421;&#x43B;&#x43E;&#x439;_2">
	<g>
		<g>
			<polygon style="fill:#FFFFFF;" points="33.78,8.995 19.872,12.482 9.76,22.502 25.768,22.502 			"/>
			<polygon style="fill:#FFFFFF;" points="9.793,25.503 19.873,35.446 33.82,38.933 25.804,25.503 			"/>
			<polygon style="fill:#FFFFFF;" points="36.433,10.528 28.447,24.001 36.433,37.434 40.294,24.001 			"/>
		</g>
		<polygon style="opacity:0.07;fill:none;stroke:#000000;stroke-miterlimit:10;" points="20.126,12.934 32.738,9.771 25.483,22.002 
			10.975,22.002 		"/>
		<g>
			<polygon style="opacity:0.05;fill:none;stroke:#1D1D1B;stroke-width:2;" points="20.126,12.934 32.738,9.771 25.483,22.002 
				10.975,22.002 			"/>
			<polygon style="opacity:0.07;fill:none;stroke:#000000;" points="20.126,12.934 32.738,9.771 25.483,22.002 10.975,22.002 			"/>
		</g>
		<polygon style="opacity:0.07;fill:none;stroke:#000000;stroke-miterlimit:10;" points="36.272,36.185 29.029,24.001 36.272,11.78 
			39.774,24.001 		"/>
		<polygon style="opacity:0.07;fill:none;stroke:#000000;stroke-miterlimit:10;" points="20.126,34.994 11.012,26.003 25.52,26.003 
			32.775,38.156 		"/>
		<g>
			<polygon style="opacity:0.05;fill:none;stroke:#1D1D1B;stroke-width:2;" points="36.272,36.185 29.029,24.001 36.272,11.78 
				39.774,24.001 			"/>
			<polygon style="opacity:0.07;fill:none;stroke:#000000;" points="36.272,36.185 29.029,24.001 36.272,11.78 39.774,24.001 			"/>
		</g>
		<g>
			<polygon style="opacity:0.05;fill:none;stroke:#1D1D1B;stroke-width:2;" points="20.126,34.994 11.012,26.003 25.52,26.003 
				32.775,38.156 			"/>
			<polygon style="opacity:0.07;fill:none;stroke:#000000;" points="20.126,34.994 11.012,26.003 25.52,26.003 32.775,38.156 			"/>
		</g>
		<linearGradient id="SVGID_1_" gradientUnits="userSpaceOnUse" x1="16.0081" y1="6.1988" x2="39.9453" y2="45.8921">
			<stop  offset="0" style="stop-color:#636363"/>
			<stop  offset="1" style="stop-color:#444444"/>
		</linearGradient>
		<path style="fill:url(#SVGID_1_);" d="M36.272,36.185l-7.243-12.184l7.243-12.221l3.502,12.221L36.272,36.185z M20.126,34.994
			l-9.115-8.991H25.52l7.254,12.153L20.126,34.994z M20.126,12.934l12.611-3.162l-7.254,12.231H10.975L20.126,12.934z M37.687,4.033
			L22.579,7.955c-0.26,0.068-0.483,0.236-0.619,0.469l-2.243,3.841l-4.533-0.034c-0.266-0.002-0.521,0.101-0.712,0.286L3.39,23.275
			c-0.409,0.398-0.409,1.055,0.001,1.452l11.081,10.724c0.19,0.184,0.446,0.286,0.711,0.284l4.534-0.034l2.244,3.842
			c0.135,0.232,0.357,0.4,0.617,0.468l15.108,3.956c0.536,0.14,1.085-0.177,1.231-0.711l4.047-14.789
			c0.074-0.269,0.033-0.557-0.113-0.795l-2.249-3.667l2.249-3.674c0.146-0.238,0.187-0.526,0.113-0.795L38.916,4.744
			C38.77,4.211,38.222,3.894,37.687,4.033z"/>
	</g>
</g>
</svg>