<?xml version="1.0" encoding="iso-8859-1"?>
<!-- Generator: Adobe Illustrator 25.2.1, SVG Export Plug-In . SVG Version: 6.00 Build 0)  -->
<svg version="1.1" id="Layer_1" xmlns="http://www.w3.org/2000/svg" xmlns:xlink="http://www.w3.org/1999/xlink" x="0px" y="0px"
	 viewBox="0 0 48 48" style="enable-background:new 0 0 48 48;" xml:space="preserve">
<linearGradient id="SVGID_1_" gradientUnits="userSpaceOnUse" x1="13.9609" y1="45.296" x2="33.9831" y2="6.8118" gradientTransform="matrix(1 0 0 -1 0 50)">
	<stop  offset="0" style="stop-color:#F44F5A"/>
	<stop  offset="0.443" style="stop-color:#EE3D4A"/>
	<stop  offset="1" style="stop-color:#E52030"/>
</linearGradient>
<path style="fill:url(#SVGID_1_);" d="M24,4C12.954,4,4,12.954,4,24s8.954,20,20,20s20-8.954,20-20S35.046,4,24,4z"/>
<path style="fill:#FFFFFF;" d="M24,32c-1.654,0-3-1.346-3-3V19c0-0.552-0.449-1-1-1s-1,0.448-1,1v6c0,1.654-1.346,3-3,3h-5v-2h5
	c0.551,0,1-0.448,1-1v-6c0-1.654,1.346-3,3-3s3,1.346,3,3v10c0,0.552,0.449,1,1,1s1-0.448,1-1v-6c0-1.654,1.346-3,3-3s3,1.346,3,3v2
	c0,0.552,0.449,1,1,1h5v2h-5c-1.654,0-3-1.346-3-3v-2c0-0.552-0.449-1-1-1s-1,0.448-1,1v6C27,30.654,25.654,32,24,32z"/>
</svg>