<?xml version="1.0" encoding="iso-8859-1"?>
<!-- Generator: Adobe Illustrator 24.1.2, SVG Export Plug-In . SVG Version: 6.00 Build 0)  -->
<svg version="1.1" baseProfile="basic" id="Layer_1"
	 xmlns="http://www.w3.org/2000/svg" xmlns:xlink="http://www.w3.org/1999/xlink" x="0px" y="0px" viewBox="0 0 48 48"
	 xml:space="preserve">
<linearGradient id="SVGID_1_" gradientUnits="userSpaceOnUse" x1="-1.154" y1="9.4773" x2="62.754" y2="46.3746">
	<stop  offset="0" style="stop-color:#262626;stop-opacity:0"/>
	<stop  offset="1" style="stop-color:#262626;stop-opacity:0.8"/>
</linearGradient>
<circle style="fill:url(#SVGID_1_);" cx="24" cy="24" r="20"/>
<linearGradient id="SVGID_2_" gradientUnits="userSpaceOnUse" x1="7.6634" y1="-20.8847" x2="45.6472" y2="83.4754">
	<stop  offset="0" style="stop-color:#262626;stop-opacity:0"/>
	<stop  offset="1" style="stop-color:#262626;stop-opacity:0.8"/>
</linearGradient>
<path style="fill:url(#SVGID_2_);" d="M24,7c9.374,0,17,7.626,17,17s-7.626,17-17,17S7,33.374,7,24S14.626,7,24,7 M24,4
	C12.954,4,4,12.954,4,24s8.954,20,20,20s20-8.954,20-20S35.046,4,24,4L24,4z"/>
<linearGradient id="SVGID_3_" gradientUnits="userSpaceOnUse" x1="9.4917" y1="7.9917" x2="43.7778" y2="42.2778">
	<stop  offset="0" style="stop-color:#262626;stop-opacity:0"/>
	<stop  offset="1" style="stop-color:#262626;stop-opacity:0.8"/>
</linearGradient>
<path style="fill:url(#SVGID_3_);" d="M9,28c0-7.7,7.2-15.4,14-17c0,0-3,2.4-3,4c0,3.3,2,2,2,2s0,12.2,0,13s0.9,1,2,1s3-1.3,3-1.3
	s0-9.5,0-10.7s-1.4-2.5-2-3c1.7,0,3,1,3,1s1.3-2.5,7-4c-0.9,1.1-3,4.1-3,5.1s0,10.7,0,11.3s0.7,0.6,1.1,0.6c0.4,0,2.7-0.6,4.9-3
	c0,0.7-3.6,6.2-8,9l-3-3l-3,4c0,0-6.1-0.7-9-5c0.8,0.1,2,0.2,2-1s0-9.2,0-10s-0.4-1.2-1-1.2C15.3,19.8,12.7,21.5,9,28z"/>
</svg>