<svg height="151" preserveAspectRatio="xMidYMid" viewBox="0 0 512 151" width="512" xmlns="http://www.w3.org/2000/svg"><path d="m391.38251 77.7574419c6.441339 0 11.668922 2.7500469 15.682497 8.2500267v-7.2094783h4.979674v39.4663637h-4.979674v-6.763533c-4.50914 5.400917-9.662262 8.101382-15.459619 8.101382-5.797231 0-10.702696-2.056318-14.716271-6.168942-3.963891-4.162168-5.9459-9.092362-5.9459-14.7906058 0-5.7477373 2.006787-10.6531524 6.020235-14.7162706 4.013574-4.1125863 8.819927-6.1689427 14.419058-6.1689427zm-89.885745 0c6.441465 0 11.668922 2.7500469 15.682497 8.2500267v-7.2094783h4.9798v39.4663637h-4.9798v-6.763533c-4.509014 5.400917-9.662262 8.101382-15.459493 8.101382-5.797357 0-10.702822-2.056318-14.71627-6.168942-3.964018-4.162168-5.946027-9.092362-5.946027-14.7906058 0-5.7477373 2.006787-10.6531524 6.020361-14.7162706 4.013448-4.1125863 8.819801-6.1689427 14.418932-6.1689427zm132.972233-12.858153c7.58114 0 13.130588.5698749 16.648723 1.7094605 3.567566 1.0901428 6.639566 2.8491599 9.216253 5.2770513 2.576561 2.3784359 4.55857 5.3018674 5.9459 8.7702945 1.387457 3.4685282 2.081122 7.5315958 2.081122 12.1892409 0 4.6081517-1.090117 8.9685209-3.270226 13.0811319-2.130678 4.063093-5.054135 7.135169-8.77037 9.216253-3.666679 2.081097-8.96847 3.121633-15.905375 3.121633h-17.020397v-53.3650651zm-73.121438 13.8987014v39.4663637h-5.12847v-39.4663637zm-139.721988-13.8987014 21.702731 43.7771881 21.554189-43.7771881h.817557l7.655474 53.3650651h-5.277013l-5.202805-38.2028488-18.878388 38.2028488h-1.337901l-19.101392-38.5001502-5.202679 38.5001502h-5.12847l7.58114-53.3650651zm122.734803 12.858153c1.635113 0 3.270226.4459963 4.905339 1.3378371l-2.675674 4.3108377c-.743221-.4459077-1.511221-.6688869-2.304-.6689248-1.536126.0000379-2.997791.7928288-4.385248 2.3783854-1.337774 1.5856323-2.328778 3.6419381-2.972887 6.1689426-.644235 2.4775111-.966226 7.0113153-.966226 13.6014001v13.378434h-5.202805v-39.4663637h5.202805v5.7229843c1.38733-2.3287909 2.725231-4.0382515 4.013448-5.1283943 1.3379-1.0900417 2.799565-1.6351384 4.385248-1.6351384zm145.683475-12.858153c5.599131 0 9.835584 1.1396993 12.709484 3.418921 2.923457 2.2297916 4.385122 5.4505245 4.385122 9.6621986 0 2.328892-.594552 4.4842982-1.783783 6.4662439-1.139674 1.9324776-2.824344 3.4932938-5.054009 4.6824486 3.666679 1.1892306 6.441466 2.973026 8.324362 5.3513734 1.932326 2.3784233 2.898678 5.2027544 2.898678 8.4730056 0 4.409951-1.610461 8.07663-4.831131 11.000048-3.220796 2.873888-7.382913 4.310826-12.486479 4.310826h-14.716397v-53.3650651zm-98.364127 17.7635808c-4.360344 0-8.051801 1.610398-11.074371 4.8310929-3.022443 3.1712143-4.533791 6.9369932-4.533791 11.2973496 0 4.3603938 1.536126 8.1509388 4.608126 11.3716588 3.072127 3.171189 6.738805 4.756771 11.000036 4.756771 4.310787 0 8.002244-1.536025 11.07437-4.608126 3.072127-3.072064 4.608127-6.936943 4.608127-11.5946386 0-4.5089881-1.511222-8.2995453-4.533792-11.3716591-3.02257-3.1215945-6.738805-4.6824486-11.148705-4.6824486zm-89.885619 0c-4.36047 0-8.051927 1.610398-11.07437 4.8310929-3.02257 3.1712143-4.533792 6.9369932-4.533792 11.2973496 0 4.3603938 1.536 8.1509388 4.608127 11.3716588 3.072 3.171189 6.738678 4.756771 11.000035 4.756771 4.310787 0 8.002244-1.536025 11.07437-4.608126 3.072-3.072064 4.608127-6.936943 4.608127-11.5946386 0-4.5089881-1.511348-8.2995453-4.533792-11.3716591-3.02257-3.1215945-6.738805-4.6824486-11.148705-4.6824486zm130.519438-12.5608644h-3.79057v43.1082757h6.169031c6.441465 0 11.099022-.322067 13.973049-.966213 2.92333-.644147 5.475113-1.907662 7.655348-3.790557 2.180235-1.932427 3.840126-4.261269 4.9798-6.986512 1.139548-2.7252181 1.709448-5.8468505 1.709448-9.3649099 0-3.5179963-.669013-6.7634948-2.006787-9.7365207-1.288344-2.9729375-3.146461-5.4256577-5.574353-7.3581353-2.427891-1.9323892-5.301791-3.2206823-8.621574-3.8648795-3.270352-.6936525-8.101483-1.0405483-14.493392-1.0405483zm55.426308 22.4460294h-2.973013v20.5136023h6.614914c3.815221 0 6.614787-.371623 8.39857-1.11487 1.833339-.792791 3.319909-1.981984 4.459583-3.567591 1.139547-1.635126 1.709448-3.29503 1.709448-4.979737 0-1.684683-.322118-3.171164-.966227-4.4594825-.644235-1.2882678-1.610461-2.4279166-2.898678-3.4189337-1.238787-.9909665-2.750009-1.7342135-4.533792-2.2297411-1.734226-.4954642-5.004578-.743247-9.810805-.743247zm3.195892-22.4460294h-6.168905v17.094656h3.047222c4.657683 0 8.126135-.7432091 10.405483-2.2297284 2.279222-1.4864561 3.418896-3.8152976 3.418896-6.9865244 0-5.2522225-3.567565-7.8784032-10.702696-7.8784032zm-132.189647-6.5405661c1.18923 0 2.180235.4212306 2.973013 1.2635148.842335.7928542 1.263565 1.783846 1.263565 2.9729881 0 1.1396994-.42123 2.1306912-1.263565 2.972988-.792778.7928415-1.783783 1.1891927-2.973013 1.1891927-1.139548 0-2.130552-.4211294-2.972887-1.2635148-.792905-.8422969-1.189231-1.8085231-1.189231-2.8986659 0-1.1395856.396326-2.1305774 1.189231-2.9729881.842335-.8422842 1.833339-1.2635148 2.972887-1.2635148z" fill="#a57242"/><path d="m222.340741.00397152c-3.513294.11226075-2.402203 1.12456692-9.993697 2.99277275-7.666018 1.88654933-17.030194 1.30806518-25.285316 4.7701839-24.643002 10.33481483-29.587291 45.65774533-51.990123 58.31111113-16.745561 9.4587259-33.640284 10.2131358-48.8296297 14.9728395-9.9821037 3.1301531-20.9016099 9.5494447-29.945679 17.3432099-7.0200889 6.0517133-7.2033849 11.3727333-14.5382716 18.9629633-7.8456099 8.118676-31.1817482.13719-41.7580247 12.562963 3.40701235 3.444938 4.90067437 4.409849 11.6148148 3.516049-1.3900737 2.634701-9.58427337 4.855037-7.9802469 8.730864 1.68777956 4.0782 21.4979192 6.842773 39.5061728-4.029629 8.3866865-5.063428 15.0667189-12.361627 28.1283951-14.103704 16.902321-2.2528 36.3735042 1.44499 55.9407412 4.266667-2.901334 8.650903-8.726427 14.40395-13.392593 21.293827-1.444978 1.556227 2.902269 1.730673 7.861728.790123 8.921442-2.206025 15.350848-3.982222 22.083951-7.901234 8.271644-4.815329 9.525109-17.160837 19.674074-19.832099 5.654756 8.691358 21.034389 10.744427 30.577778 3.792592-8.374045-2.37037-10.688449-20.194923-7.861729-28.0493823 2.677571-7.4347457 5.323258-19.327684 8.019754-29.1555556 2.895012-10.5547852 3.963044-23.8581254 7.466666-29.2345679 5.271261-8.0889553 11.095799-10.8667259 16.152551-15.4280138 5.056739-4.5612879 9.685283-9.0013393 9.533389-19.43850353-.048924-3.36175407-1.78712-5.23566143-4.984705-5.13347635z" fill="#002b64"/><path d="m215.447072 6.20596027c.844484 2.87857777 2.16557 4.19966423 7.877214 4.72809873-.83437 7.2413235-5.664869 11.2020544-11.080691 15.0022321-4.766025 3.3425383-9.98716 6.5611852-13.342341 11.782321-3.437353 5.3488198-5.619358 23.6544-10.949214 41.7324247-4.606736 15.6204247-11.563615 31.0651262-23.712554 37.8323752-1.269254-3.194627.161818-9.090844-2.362785-11.028859-1.633343 4.658568-3.480336 9.103486-5.643378 13.234884-7.128809 13.625521-17.683595 23.827595-35.321679 26.942578 8.368988-11.324682 16.371358-23.019773 16.544554-42.538983-5.889897 1.274311-5.764741 15.186805-11.816455 18.906074-3.879822.422242-7.810212.419714-11.765886.182044-16.2449385-.973432-32.9095903-5.855763-48.1065089-.979753-10.3474567 3.321047-18.809995 11.155279-27.5721481 14.955457-10.2981531 4.46641-18.0969877 6.303289-30.92100741 4.46641-1.62828642-2.193383 9.38540251-5.023921 8.72675551-9.786153-5.0188641-.554983-7.93283946.661175-12.29558514-1.321087.48165926-.887466 1.18960988-1.627022 2.08086914-2.242686 7.9960494-5.534657 30.7086222-1.30718 36.7868839-7.275457 3.7521383-3.681343 6.2135309-7.534617 8.7621531-11.280434 2.4715062-3.634568 5.0264494-7.168 8.9189136-10.3525139 1.4373926-1.1757037 2.9999408-2.3375012 4.6585679-3.4714864 6.6332445-4.5397333 14.8391506-8.6572247 22.9148445-11.4953482 11.0010469-3.8671802 22.1487409-4.185758 33.8741729-8.666074 7.243852-2.7685926 15.121067-6.188247 21.541926-10.9732346 1.524622-1.1377778 2.967071-2.3501432 4.3008-3.6497383 18.334657-17.8732247 21.969225-49.4010469 50.574222-52.33904195 3.458844-.35523951 6.290647-.24019753 8.868346-.31857778 2.970864-.08849383 5.600395-.43361975 8.46001-2.0454716zm-34.871802 100.90693173c.341333 5.463862 3.513205 16.304356 6.313402 18.938944-5.484088 1.333728-14.931437-.869768-17.354903-4.738213 1.245234-5.585224 7.725511-10.691318 11.041501-14.200731z" fill="#c49a6c"/><path d="m216.84004 12.2250323c-1.077096 2.259121-3.139002 5.1718321-3.139002 10.9226666-.00885.9873383-.749669 1.663684-.762311.1415902.055624-5.6206223 1.543585-8.0504099 3.123832-11.2437729.734499-1.3084444 1.176968-.7686321.777481.1795161zm-1.084681-.850805c-1.270519 2.1554568-4.329877 6.0871111-4.835556 11.8164543-.09355.9822815-.892523 1.5903605-.77116.0720593.55119-5.5928099 2.996148-9.0933728 4.85199-12.1362963.841955-1.23764937 1.237649-.6611753.754726.2477827zm-.988603-1.1276642c-1.447506 2.0404148-6.156642 6.7621926-7.141452 12.4295902-.176987.9696395-1.024 1.510716-.774953.0075851 1.018944-5.5283358 5.078282-9.8733827 7.183171-12.74690367.943091-1.16432592 1.288217-.55624691.733234.30972837zm-.88241-1.25787651-.476225.50654023c-2.105591 2.25742718-6.997112 7.76344078-8.627261 12.80293138-.313521.9355062-1.227536 1.3526913-.768632-.1011358 1.785047-5.3298568 6.701511-11.0705778 9.189452-13.61920001 1.098587-1.02020741 1.353955-.36914568.682666.4108642zm-25.275101 11.41064691c1.091003-4.6863802 4.735684-6.8216099 11.027595-6.3007605 1.518302 6.9948049-6.97837 9.8164938-11.027595 6.3007605z" fill="#002b64"/></svg>