<svg fill="none" height="48" viewBox="0 0 48 48" width="48" xmlns="http://www.w3.org/2000/svg"><path d="m5 8c0-1.10457.89543-2 2-2h34c1.1046 0 2 .89543 2 2v24c0 1.1046-.8954 2-2 2h-34c-1.10457 0-2-.8954-2-2z" stroke="#000" stroke-linecap="round" stroke-linejoin="round" stroke-width="4"/><path d="m5 26c0-1.1046.89543-2 2-2h34c1.1046 0 2 .8954 2 2v6c0 1.1046-.8954 2-2 2h-34c-1.10457 0-2-.8954-2-2z" fill="#2f88ff" stroke="#000" stroke-linecap="round" stroke-linejoin="round" stroke-width="4"/><g fill="#000"><path d="m16.4383 15.7506c-.6901.8625-.5502 2.1211.3123 2.8111.8625.6901 2.1211.5502 2.8111-.3123zm7.1234-2.5012c.6901-.8625.5502-2.1211-.3123-2.8111-.8625-.69006-2.1211-.55021-2.8111.3123zm-4 5 4-5-3.1234-2.4988-4 5z"/><path d="m23.4 16.8c-.6627.8837-.4837 2.1373.4 2.8s2.1373.4837 2.8-.4zm6.2-1.6c.6627-.8837.4837-2.1373-.4-2.8s-2.1373-.4837-2.8.4zm-3 4 3-4-3.2-2.4-3 4z"/><circle cx="24" cy="29" r="2"/></g><path d="m17 34-3 8h20l-3-8" stroke="#000" stroke-linecap="round" stroke-linejoin="round" stroke-width="4"/></svg>