<svg viewBox="0 0 24 24" xmlns="http://www.w3.org/2000/svg"><path d="m12.788 15.963 3.872-2.236v-4.47l-3.872 2.235zm.37.214 3.502 2.023v-4.043l-3.502 2.021zm3.291-7.714v-4.043l-3.502 2.02 3.502 2.022zm-3.872-1.808-3.873 2.236 3.873 2.236 3.872-2.236zm-.371-.214-3.502-2.021v4.043zm4.825 3.03v4.042l3.501-2.021-3.501-2.022zm-4.665 6.492v-4.471l-3.872-2.236v4.471zm-4.243-6.493-3.503 2.022 3.502 2.021v-4.043zm.37 4.686v4.043l3.502-2.022-3.501-2.021zm11.514-14.022h-16.028c-2.189 0-3.979 1.768-3.979 3.93v15.832c0 2.161 1.79 3.93 3.979 3.93h10.976l-2.962-7.108-2.15 4.488h-5.863c-.72 0-1.327-.6-1.327-1.31v-15.832c0-.71.608-1.31 1.327-1.31h16.028c.719 0 1.327.6 1.327 1.31v15.832c0 .71-.608 1.31-1.327 1.31h-3.478l1.092 2.62h2.386c2.188 0 3.979-1.769 3.979-3.93v-15.832c0-2.162-1.79-3.93-3.979-3.93z"/></svg>