<svg viewBox="0 0 72 72" xmlns="http://www.w3.org/2000/svg"><path d="m5.2629 15.7371-.7629 40.2633h62.1729l.3271-40.0004z" fill="#9b9b9a"/><path d="m9 20h54v26h-54z" fill="#3f3f3f"/><path d="m63 46v-26l-14.6738-.3236 8.9015 26.0601z" fill="#fff"/><path d="m34.2719 60.958-.2095 5.894 4.5437.1057.1946-6.6887s-.8534-1.3007-.3007-1.3007h-4c.5527 0-.2281 1.9897-.2281 1.9897z" fill="#9b9b9a"/><path d="m5 16h62v40h-62z" style="fill:none;stroke:#000;stroke-linecap:round;stroke-linejoin:round;stroke-miterlimit:10;stroke-width:2"/><path d="m50.9229 66.852h-28.8458" stroke="#000" stroke-linecap="round" stroke-linejoin="round" stroke-miterlimit="10" stroke-width="2"/><circle cx="36.5" cy="51" r="2"/><g style="fill:none;stroke:#000;stroke-linecap:round;stroke-linejoin:round;stroke-miterlimit:10;stroke-width:2"><path d="m9 20h54v26h-54z"/><path d="m38.5 59.9683v6.3855"/><path d="m34.5 59.9683v6.3855"/></g></svg>